

<!-- Step 3: Extract - Magic transformation, no input field -->
<svg width="200" height="200" viewBox="0 0 200 200" xmlns="http://www.w3.org/2000/svg">
  <!-- Left: plain URL pill -->
  <rect x="8" y="88" width="68" height="24" rx="12" fill="#2a2a3e" stroke="#555" stroke-width="1.5"/>
  <circle cx="22" cy="100" r="6" fill="#FF0000" opacity="0.7"/>
  <rect x="32" y="96" width="36" height="3" rx="1.5" fill="#555"/>
  <rect x="32" y="102" width="26" height="3" rx="1.5" fill="#444"/>
  <!-- Center magic burst -->
  <circle cx="100" cy="100" r="26" fill="#7C3AED" opacity="0.12"/>
  <circle cx="100" cy="100" r="18" fill="#7C3AED" opacity="0.18"/>
  <text x="88" y="108" font-size="22">⚡</text>
  <!-- Rays -->
  <line x1="100" y1="62" x2="100" y2="70" stroke="#7C3AED" stroke-width="2" opacity="0.5"/>
  <line x1="100" y1="130" x2="100" y2="138" stroke="#7C3AED" stroke-width="2" opacity="0.5"/>
  <line x1="62" y1="100" x2="70" y2="100" stroke="#7C3AED" stroke-width="2" opacity="0.5"/>
  <line x1="130" y1="100" x2="138" y2="100" stroke="#7C3AED" stroke-width="2" opacity="0.5"/>
  <line x1="73" y1="73" x2="79" y2="79" stroke="#7C3AED" stroke-width="2" opacity="0.4"/>
  <line x1="121" y1="121" x2="127" y2="127" stroke="#7C3AED" stroke-width="2" opacity="0.4"/>
  <line x1="127" y1="73" x2="121" y2="79" stroke="#7C3AED" stroke-width="2" opacity="0.4"/>
  <line x1="73" y1="127" x2="79" y2="121" stroke="#7C3AED" stroke-width="2" opacity="0.4"/>
  <!-- Right: structured card -->
  <rect x="126" y="48" width="68" height="104" rx="8" fill="#2a2a3e" stroke="#7C3AED" stroke-width="1.5"/>
  <rect x="134" y="58" width="28" height="20" rx="4" fill="#7C3AED" opacity="0.3"/>
  <polygon points="143,65 143,72 150,68.5" fill="#7C3AED"/>
  <rect x="134" y="83" width="52" height="4" rx="2" fill="#7C3AED" opacity="0.9"/>
  <rect x="134" y="93" width="42" height="3" rx="1.5" fill="#444"/>
  <rect x="134" y="102" width="46" height="3" rx="1.5" fill="#444"/>
  <rect x="134" y="111" width="38" height="3" rx="1.5" fill="#444"/>
  <rect x="134" y="120" width="44" height="3" rx="1.5" fill="#444"/>
  <rect x="134" y="129" width="40" height="3" rx="1.5" fill="#333"/>
  <rect x="134" y="138" width="36" height="3" rx="1.5" fill="#333"/>
</svg>